<mxfile host="app.diagrams.net" modified="2023-12-01T23:09:18.435Z" agent="Mozilla/5.0 (Macintosh; Intel Mac OS X 10_15_7) AppleWebKit/605.1.15 (KHTML, like Gecko) Version/17.1.1 Safari/605.1.15" version="22.1.5" etag="L_SFz4_6Tshg2gvnvX-S" type="github">
  <diagram name="Page-1" id="1YKbbxRkhoVTCYXezvNC">
    <mxGraphModel>
      <root>
        <mxCell id="0" />
        <mxCell id="1" parent="0" />
      </root>
    </mxGraphModel>
  </diagram>
</mxfile>
